<svg xmlns="http://www.w3.org/2000/svg" width="1100" height="2987pt" style="background-color:#121212" viewBox="0 0 824.86 2987"><style>@keyframes fadeIn{to{opacity:1}}@keyframes pulseGlow{0%{filter:drop-shadow(0 0 4px rgba(0,255,153,.6));opacity:.9}50%{filter:drop-shadow(0 0 8px rgba(0,255,153,.8))}to{filter:drop-shadow(0 0 6px rgba(0,255,204,.9));opacity:1}}@keyframes glow{0%{stroke-opacity:.7;filter:drop-shadow(0 0 2px #39ff14)}to{stroke-opacity:1;filter:drop-shadow(0 0 4px #39ff14)}}@keyframes dash{to{stroke-dashoffset:-100}}.edge{stroke-dasharray:8,4;animation:dash 10s linear infinite,glow 3s infinite alternate}.edge path{stroke:#39ff14}</style><g id="graph0" class="graph" transform="translate(4 2983)"><path fill="#121212" stroke="transparent" d="M-4 4v-2987h824.86V4z"/><g id="edge1" class="edge"><path fill="none" stroke="#39ff14" stroke-width="1.2" d="M144.39-72h194.57"/><path fill="#39ff14" stroke="#39ff14" stroke-width="1.2" d="m339.22-75.5 10 3.5-10 3.5z"/></g><g id="edge2" class="edge"><path fill="none" stroke="#39ff14" stroke-width="1.2" d="M419.48-78.35c54.17-10.11 159.63-29.78 216.63-40.42"/><path fill="#39ff14" stroke="#39ff14" stroke-width="1.2" d="m635.69-122.25 10.47 1.61-9.19 5.27z"/></g><g id="edge3" class="edge"><path fill="none" stroke="#39ff14" stroke-width="1.2" d="M419.48-72h198.03"/><path fill="#39ff14" stroke="#39ff14" stroke-width="1.2" d="m617.81-75.5 10 3.5-10 3.5z"/></g><g id="edge4" class="edge"><path fill="none" stroke="#39ff14" stroke-width="1.2" d="M419.48-65.65c52.87 9.87 154.61 28.85 212.45 39.64"/><path fill="#39ff14" stroke="#39ff14" stroke-width="1.2" d="m632.67-29.44 9.18 5.28-10.47 1.6z"/></g><g id="edge5" class="edge"><path fill="none" stroke="#39ff14" stroke-width="1.2" d="M148.15-612H334.1"/><path fill="#39ff14" stroke="#39ff14" stroke-width="1.2" d="m334.23-615.5 10 3.5-10 3.5z"/></g><g id="edge6" class="edge"><path fill="none" stroke="#39ff14" stroke-width="1.2" d="M148.15-605.86c40.56 8.25 113.77 23.14 167.78 34.13"/><path fill="#39ff14" stroke="#39ff14" stroke-width="1.2" d="m316.68-575.15 9.1 5.43-10.49 1.43z"/></g><g id="edge7" class="edge"><path fill="none" stroke="#39ff14" stroke-width="1.2" d="M144.39-695.69c47.7-4.85 148.27-15.08 202.51-20.6"/><path fill="#39ff14" stroke="#39ff14" stroke-width="1.2" d="m346.8-719.79 10.31 2.47-9.6 4.49z"/></g><g id="edge8" class="edge"><path fill="none" stroke="#39ff14" stroke-width="1.2" d="M144.39-690.31c45.46 4.62 138.94 14.13 194.57 19.79"/><path fill="#39ff14" stroke="#39ff14" stroke-width="1.2" d="m339.63-673.97 9.59 4.49-10.3 2.47z"/></g><g id="edge9" class="edge"><path fill="none" stroke="#39ff14" stroke-width="1.2" d="M144.16-898.65c29.53-18.12 79.49-46.84 125.76-64.35 13.47-5.09 28.21-9.44 42.48-13.06"/><path fill="#39ff14" stroke="#39ff14" stroke-width="1.2" d="m311.64-979.48 10.54 1.02-8.88 5.78z"/></g><g id="edge10" class="edge"><path fill="none" stroke="#39ff14" stroke-width="1.2" d="M144.39-887.38c36.79-7.48 105.02-21.36 159.2-32.38"/><path fill="#39ff14" stroke="#39ff14" stroke-width="1.2" d="m303.04-923.22 10.49 1.44-9.1 5.42z"/></g><g id="edge11" class="edge"><path fill="none" stroke="#39ff14" stroke-width="1.2" d="M144.39-882H346.9"/><path fill="#39ff14" stroke="#39ff14" stroke-width="1.2" d="m347.11-885.5 10 3.5-10 3.5z"/></g><g id="edge12" class="edge"><path fill="none" stroke="#39ff14" stroke-width="1.2" d="M144.39-876.62c47.8 9.72 148.69 30.24 202.85 41.26"/><path fill="#39ff14" stroke="#39ff14" stroke-width="1.2" d="m348-838.78 9.11 5.43-10.5 1.43z"/></g><g id="edge15" class="edge"><path fill="none" stroke="#39ff14" stroke-width="1.2" d="M144.16-865.35c29.53 18.12 79.49 46.84 125.76 64.35 25.14 9.51 54.71 16.41 77.36 20.86"/><path fill="#39ff14" stroke="#39ff14" stroke-width="1.2" d="m347.99-783.57 9.17 5.3-10.47 1.58z"/></g><g id="edge13" class="edge"><path fill="none" stroke="#39ff14" stroke-width="1.2" d="M411.62-830.44c45.55-4.25 140.44-13.1 202.98-18.94"/><path fill="#39ff14" stroke="#39ff14" stroke-width="1.2" d="m614.45-852.88 10.28 2.56-9.63 4.41z"/></g><g id="edge14" class="edge"><path fill="none" stroke="#39ff14" stroke-width="1.2" d="M411.62-825.56c42.25 3.94 126.97 11.85 188.93 17.63"/><path fill="#39ff14" stroke="#39ff14" stroke-width="1.2" d="m601.04-811.4 9.63 4.41-10.28 2.56z"/></g><g id="edge16" class="edge"><path fill="none" stroke="#39ff14" stroke-width="1.2" d="M151.05-1104.73c42.3-8.61 116.43-23.69 169.6-34.5"/><path fill="#39ff14" stroke="#39ff14" stroke-width="1.2" d="m320.16-1142.7 10.49 1.43-9.1 5.43z"/></g><g id="edge17" class="edge"><path fill="none" stroke="#39ff14" stroke-width="1.2" d="M151.05-1098h179.79"/><path fill="#39ff14" stroke="#39ff14" stroke-width="1.2" d="m331.15-1101.5 10 3.5-10 3.5z"/></g><g id="edge21" class="edge"><path fill="none" stroke="#39ff14" stroke-width="1.2" d="M151.05-1091.27c47.82 9.73 136.3 27.73 189.21 38.49"/><path fill="#39ff14" stroke="#39ff14" stroke-width="1.2" d="m341.24-1056.15 9.1 5.42-10.5 1.44z"/></g><g id="edge18" class="edge"><path fill="none" stroke="#39ff14" stroke-width="1.2" d="M427.51-1105.85c51.96-9.7 140.29-26.17 196.14-36.59"/><path fill="#39ff14" stroke="#39ff14" stroke-width="1.2" d="m623.21-1145.92 10.48 1.61-9.19 5.27z"/></g><g id="edge19" class="edge"><path fill="none" stroke="#39ff14" stroke-width="1.2" d="M427.51-1098h195.66"/><path fill="#39ff14" stroke="#39ff14" stroke-width="1.2" d="m623.22-1101.5 10 3.5-10 3.5z"/></g><g id="edge20" class="edge"><path fill="none" stroke="#39ff14" stroke-width="1.2" d="M427.51-1090.15c52.55 9.81 142.3 26.55 198.03 36.94"/><path fill="#39ff14" stroke="#39ff14" stroke-width="1.2" d="m626.35-1056.62 9.19 5.28-10.48 1.61z"/></g><g id="edge22" class="edge"><path fill="none" stroke="#39ff14" stroke-width="1.2" d="M164.71-1509.74c22.96-5.3 49.79-14.69 69.21-31.26 26.62-22.7 8.47-48.42 36-70 16.57-12.99 38.4-19.88 58.48-23.48"/><path fill="#39ff14" stroke="#39ff14" stroke-width="1.2" d="m327.97-1637.96 10.42 1.92-9.34 5z"/></g><g id="edge23" class="edge"><path fill="none" stroke="#39ff14" stroke-width="1.2" d="M164.61-1517.1c21.31-6.74 46.77-15.22 69.31-23.9 16.34-6.29 19.42-10.39 36-16 18.71-6.32 39.62-11.74 58.36-16.03"/><path fill="#39ff14" stroke="#39ff14" stroke-width="1.2" d="m327.62-1576.47 10.52 1.23-9 5.6z"/></g><g id="edge24" class="edge"><path fill="none" stroke="#39ff14" stroke-width="1.2" d="M164.51-1507.73c49.73-5.06 127.9-13.01 176.14-17.92"/><path fill="#39ff14" stroke="#39ff14" stroke-width="1.2" d="m340.46-1529.15 10.3 2.47-9.59 4.5z"/></g><g id="edge25" class="edge"><path fill="none" stroke="#39ff14" stroke-width="1.2" d="M164.51-1498.27c51.97 5.29 135.02 13.74 182.48 18.56"/><path fill="#39ff14" stroke="#39ff14" stroke-width="1.2" d="m347.53-1483.17 9.59 4.5-10.3 2.47z"/></g><g id="edge30" class="edge"><path fill="none" stroke="#39ff14" stroke-width="1.2" d="M164.76-1484.89c29.83 11.17 69.45 25.33 105.16 35.89 14.98 4.43 31.23 8.64 46.63 12.36"/><path fill="#39ff14" stroke="#39ff14" stroke-width="1.2" d="m317.61-1439.99 8.92 5.72-10.54 1.09z"/></g><g id="edge31" class="edge"><path fill="none" stroke="#39ff14" stroke-width="1.2" d="M143.42-1484.88c48.16 34.29 152.61 108.66 206.44 146.98"/><path fill="#39ff14" stroke="#39ff14" stroke-width="1.2" d="m351.93-1340.72 6.12 8.65-10.18-2.95z"/></g><g id="edge26" class="edge"><path fill="none" stroke="#39ff14" stroke-width="1.2" d="M411.51-1476.84c24.54-1.95 61.31-7.99 87.41-26.16 23.67-16.48 11.98-38.03 36-54 24.76-16.46 57.12-23.42 84.48-26.17"/><path fill="#39ff14" stroke="#39ff14" stroke-width="1.2" d="m619.35-1586.68 10.26 2.66-9.67 4.32z"/></g><g id="edge27" class="edge"><path fill="none" stroke="#39ff14" stroke-width="1.2" d="M411.62-1480.89c49.07-9.15 155.42-28.99 216.88-40.46"/><path fill="#39ff14" stroke="#39ff14" stroke-width="1.2" d="m628.22-1524.85 10.47 1.6-9.19 5.28z"/></g><g id="edge28" class="edge"><path fill="none" stroke="#39ff14" stroke-width="1.2" d="M411.62-1476h210.42"/><path fill="#39ff14" stroke="#39ff14" stroke-width="1.2" d="m622.05-1479.5 10 3.5-10 3.5z"/></g><g id="edge29" class="edge"><path fill="none" stroke="#39ff14" stroke-width="1.2" d="M411.62-1471.11c48.78 9.1 154.14 28.75 215.77 40.25"/><path fill="#39ff14" stroke="#39ff14" stroke-width="1.2" d="m628.07-1434.3 9.18 5.28-10.47 1.61z"/></g><g id="edge32" class="edge"><path fill="none" stroke="#39ff14" stroke-width="1.2" d="M411.62-1318.89c47.86-8.92 150.18-28.01 212.22-39.59"/><path fill="#39ff14" stroke="#39ff14" stroke-width="1.2" d="m623.34-1361.94 10.47 1.6-9.18 5.28z"/></g><g id="edge33" class="edge"><path fill="none" stroke="#39ff14" stroke-width="1.2" d="M411.62-1314h196.63"/><path fill="#39ff14" stroke="#39ff14" stroke-width="1.2" d="m608.41-1317.5 10 3.5-10 3.5z"/></g><g id="edge34" class="edge"><path fill="none" stroke="#39ff14" stroke-width="1.2" d="M411.62-1309.11c45.02 8.4 138.25 25.79 200.79 37.46"/><path fill="#39ff14" stroke="#39ff14" stroke-width="1.2" d="m613.37-1275.04 9.19 5.28-10.47 1.6z"/></g><g id="edge35" class="edge"><path fill="none" stroke="#39ff14" stroke-width="1.2" d="M411.54-1296.62c28.97 18.48 77.66 47.26 123.38 63.62 28.52 10.2 61.75 16.82 88.68 20.95"/><path fill="#39ff14" stroke="#39ff14" stroke-width="1.2" d="m624.2-1215.5 9.39 4.91-10.4 2.01z"/></g><g id="edge36" class="edge"><path fill="none" stroke="#39ff14" stroke-width="1.2" d="M144.16-1816.65c29.53-18.12 79.49-46.84 125.76-64.35 13.19-4.99 27.6-9.26 41.58-12.84"/><path fill="#39ff14" stroke="#39ff14" stroke-width="1.2" d="m311.05-1897.33 10.54 1.01-8.87 5.79z"/></g><g id="edge37" class="edge"><path fill="none" stroke="#39ff14" stroke-width="1.2" d="M144.39-1805.38c41.38-8.41 122.55-24.92 178.74-36.36"/><path fill="#39ff14" stroke="#39ff14" stroke-width="1.2" d="m322.47-1845.17 10.5 1.43-9.1 5.43z"/></g><g id="edge38" class="edge"><path fill="none" stroke="#39ff14" stroke-width="1.2" d="M144.39-1800h151.15"/><path fill="#39ff14" stroke="#39ff14" stroke-width="1.2" d="m295.59-1803.5 10 3.5-10 3.5z"/></g><g id="edge39" class="edge"><path fill="none" stroke="#39ff14" stroke-width="1.2" d="M144.39-1794.62c42.31 8.6 126.21 25.67 182.48 37.12"/><path fill="#39ff14" stroke="#39ff14" stroke-width="1.2" d="m327.6-1760.93 9.1 5.43-10.5 1.43z"/></g><g id="edge40" class="edge"><path fill="none" stroke="#39ff14" stroke-width="1.2" d="M144.26-1796.05c24.83 4.71 62.22 14.4 89.66 33.05 20.9 14.2 14.59 30.59 36 44 8.79 5.5 18.59 9.88 28.66 13.36"/><path fill="#39ff14" stroke="#39ff14" stroke-width="1.2" d="m299.81-1708.92 8.47 6.36-10.59.31z"/></g><g id="edge41" class="edge"><path fill="none" stroke="#39ff14" stroke-width="1.2" d="M129.52-2169.08c22.62-33.85 76.19-106.68 140.4-143.92 17.98-10.43 39.78-16.83 59.46-20.76"/><path fill="#39ff14" stroke="#39ff14" stroke-width="1.2" d="m328.97-2337.25 10.47 1.65-9.21 5.24z"/></g><g id="edge42" class="edge"><path fill="none" stroke="#39ff14" stroke-width="1.2" d="M138.01-2169.16c27.66-24.09 80.03-66.32 131.91-89.84 19.73-8.94 42.78-15.13 62.93-19.3"/><path fill="#39ff14" stroke="#39ff14" stroke-width="1.2" d="m332.31-2281.75 10.48 1.51-9.14 5.36z"/></g><g id="edge43" class="edge"><path fill="none" stroke="#39ff14" stroke-width="1.2" d="M144.03-2161.23c30.05-11.57 81.05-30.51 125.89-43.77 18.44-5.45 38.81-10.57 57.14-14.86"/><path fill="#39ff14" stroke="#39ff14" stroke-width="1.2" d="m326.48-2223.32 10.53 1.17-8.96 5.66z"/></g><g id="edge44" class="edge"><path fill="none" stroke="#39ff14" stroke-width="1.2" d="M144.39-2153.69c41.05-4.17 121.25-12.33 177.38-18.04"/><path fill="#39ff14" stroke="#39ff14" stroke-width="1.2" d="m321.66-2175.24 10.3 2.47-9.59 4.5z"/></g><g id="edge45" class="edge"><path fill="none" stroke="#39ff14" stroke-width="1.2" d="M144.39-2148.31c47.82 4.86 148.79 15.13 202.93 20.64"/><path fill="#39ff14" stroke="#39ff14" stroke-width="1.2" d="m347.9-2131.13 9.6 4.49-10.31 2.47z"/></g><g id="edge46" class="edge"><path fill="none" stroke="#39ff14" stroke-width="1.2" d="M144.03-2140.77c30.05 11.57 81.05 30.51 125.89 43.77 14.13 4.18 29.39 8.16 43.99 11.72"/><path fill="#39ff14" stroke="#39ff14" stroke-width="1.2" d="m314.99-2088.62 8.91 5.74-10.54 1.07z"/></g><g id="edge47" class="edge"><path fill="none" stroke="#39ff14" stroke-width="1.2" d="M138.01-2132.84c27.66 24.09 80.03 66.32 131.91 89.84 10.6 4.8 22.15 8.81 33.69 12.14"/><path fill="#39ff14" stroke="#39ff14" stroke-width="1.2" d="m304.56-2034.23 8.73 6-10.57.75z"/></g><g id="edge52" class="edge"><path fill="none" stroke="#39ff14" stroke-width="1.2" d="M129.52-2132.92c22.62 33.85 76.19 106.68 140.4 143.92 21.81 12.64 49.23 19.37 71.66 22.95"/><path fill="#39ff14" stroke="#39ff14" stroke-width="1.2" d="m342.1-1969.51 9.4 4.9-10.4 2.03z"/></g><g id="edge48" class="edge"><path fill="none" stroke="#39ff14" stroke-width="1.2" d="M455.68-2027.96c14.67-3.8 29.76-8.72 43.24-15.04 18.11-8.49 17.72-18.9 36-27 27.09-12 59.45-18.68 86.23-22.39"/><path fill="#39ff14" stroke="#39ff14" stroke-width="1.2" d="m620.75-2095.87 10.36 2.19-9.47 4.75z"/></g><g id="edge49" class="edge"><path fill="none" stroke="#39ff14" stroke-width="1.2" d="M455.49-2022.54c47.45-4.42 109.63-10.22 155.68-14.52"/><path fill="#39ff14" stroke="#39ff14" stroke-width="1.2" d="m611.05-2040.56 10.28 2.56-9.63 4.41z"/></g><g id="edge50" class="edge"><path fill="none" stroke="#39ff14" stroke-width="1.2" d="M455.49-2009.46c41.13 3.83 93.33 8.7 136.5 12.73"/><path fill="#39ff14" stroke="#39ff14" stroke-width="1.2" d="m592.56-2000.2 9.63 4.42-10.28 2.55z"/></g><g id="edge51" class="edge"><path fill="none" stroke="#39ff14" stroke-width="1.2" d="M455.68-2004.04c14.67 3.8 29.76 8.72 43.24 15.04 18.11 8.49 17.72 18.9 36 27 25.87 11.46 56.55 18.07 82.58 21.87"/><path fill="#39ff14" stroke="#39ff14" stroke-width="1.2" d="m618.16-1943.57 9.44 4.82-10.38 2.12z"/></g><g id="edge53" class="edge"><path fill="none" stroke="#39ff14" stroke-width="1.2" d="M149.72-2454.46c46.15-9.39 132.12-26.88 185.94-37.82"/><path fill="#39ff14" stroke="#39ff14" stroke-width="1.2" d="m335.15-2495.75 10.49 1.44-9.1 5.42z"/></g><g id="edge54" class="edge"><path fill="none" stroke="#39ff14" stroke-width="1.2" d="M149.72-2448h172.22"/><path fill="#39ff14" stroke="#39ff14" stroke-width="1.2" d="m322.06-2451.5 10 3.5-10 3.5z"/></g><g id="edge55" class="edge"><path fill="none" stroke="#39ff14" stroke-width="1.2" d="M149.72-2441.54c45.38 9.23 129.24 26.29 183.2 37.27"/><path fill="#39ff14" stroke="#39ff14" stroke-width="1.2" d="m333.86-2407.65 9.1 5.42-10.5 1.44z"/></g><g id="edge56" class="edge"><path fill="none" stroke="#39ff14" stroke-width="1.2" d="M138.01-2736.16c27.66-24.09 80.03-66.32 131.91-89.84 19.09-8.65 41.29-14.72 60.96-18.88"/><path fill="#39ff14" stroke="#39ff14" stroke-width="1.2" d="m330.42-2848.36 10.49 1.47-9.12 5.39z"/></g><g id="edge57" class="edge"><path fill="none" stroke="#39ff14" stroke-width="1.2" d="M144.03-2728.23c30.05-11.57 81.05-30.51 125.89-43.77 20.77-6.14 43.99-11.86 64-16.44"/><path fill="#39ff14" stroke="#39ff14" stroke-width="1.2" d="m333.23-2791.88 10.52 1.21-8.98 5.62z"/></g><g id="edge58" class="edge"><path fill="none" stroke="#39ff14" stroke-width="1.2" d="M144.39-2720.69c45.18-4.59 137.8-14.01 193.55-19.68"/><path fill="#39ff14" stroke="#39ff14" stroke-width="1.2" d="m337.6-2743.86 10.31 2.47-9.6 4.5z"/></g><g id="edge60" class="edge"><path fill="none" stroke="#39ff14" stroke-width="1.2" d="M144.39-2715.31c47.7 4.85 148.27 15.08 202.51 20.6"/><path fill="#39ff14" stroke="#39ff14" stroke-width="1.2" d="m347.51-2698.17 9.6 4.49-10.31 2.47z"/></g><g id="edge63" class="edge"><path fill="none" stroke="#39ff14" stroke-width="1.2" d="M144.03-2707.77c30.05 11.57 81.05 30.51 125.89 43.77 15.3 4.52 31.92 8.82 47.61 12.6"/><path fill="#39ff14" stroke="#39ff14" stroke-width="1.2" d="m318.76-2654.71 8.93 5.71-10.54 1.1z"/></g><g id="edge64" class="edge"><path fill="none" stroke="#39ff14" stroke-width="1.2" d="M140.8-2699.85c29.02 22.6 81.12 61.66 129.12 89.85 25.19 14.79 55.08 28.88 77.86 38.96"/><path fill="#39ff14" stroke="#39ff14" stroke-width="1.2" d="m349.31-2574.19 7.76 7.21-10.57-.8z"/></g><g id="edge59" class="edge"><path fill="none" stroke="#39ff14" stroke-width="1.2" d="M421.21-2748.34c49.94-4.66 140.97-13.15 199.32-18.59"/><path fill="#39ff14" stroke="#39ff14" stroke-width="1.2" d="m620.39-2770.43 10.28 2.55-9.63 4.42z"/></g><g id="edge61" class="edge"><path fill="none" stroke="#39ff14" stroke-width="1.2" d="M411.62-2693.44c47.07-4.39 146.81-13.7 209.11-19.51"/><path fill="#39ff14" stroke="#39ff14" stroke-width="1.2" d="m620.49-2716.44 10.29 2.55-9.64 4.42z"/></g><g id="edge62" class="edge"><path fill="none" stroke="#39ff14" stroke-width="1.2" d="M411.62-2688.56c38.55 3.6 112.44 10.49 172.15 16.06"/><path fill="#39ff14" stroke="#39ff14" stroke-width="1.2" d="m584.34-2675.96 9.64 4.41-10.29 2.56z"/></g><g id="edge65" class="edge"><path fill="none" stroke="#39ff14" stroke-width="1.2" d="M411.62-2560.89c47.86-8.92 150.18-28.01 212.22-39.59"/><path fill="#39ff14" stroke="#39ff14" stroke-width="1.2" d="m623.34-2603.94 10.47 1.6-9.18 5.28z"/></g><g id="edge66" class="edge"><path fill="none" stroke="#39ff14" stroke-width="1.2" d="M411.62-2556H592.6"/><path fill="#39ff14" stroke="#39ff14" stroke-width="1.2" d="m592.62-2559.5 10 3.5-10 3.5z"/></g><g id="edge67" class="edge"><path fill="none" stroke="#39ff14" stroke-width="1.2" d="M411.62-2551.11c46.87 8.74 145.97 27.23 208.33 38.86"/><path fill="#39ff14" stroke="#39ff14" stroke-width="1.2" d="m620.81-2515.65 9.19 5.28-10.47 1.6z"/></g><g id="edge68" class="edge"><path fill="none" stroke="#39ff14" stroke-width="1.2" d="M411.51-2555.16c24.54 1.95 61.31 7.99 87.41 26.16 23.67 16.48 11.98 38.03 36 54 15.81 10.51 34.72 17.15 53.44 21.29"/><path fill="#39ff14" stroke="#39ff14" stroke-width="1.2" d="m589.29-2457.1 9.13 5.38-10.49 1.49z"/></g><g id="edge69" class="edge"><path fill="none" stroke="#39ff14" stroke-width="1.2" d="M144.39-2907h180.65"/><path fill="#39ff14" stroke="#39ff14" stroke-width="1.2" d="m325.22-2910.5 10 3.5-10 3.5z"/></g><g id="edge70" class="edge"><path fill="none" stroke="#39ff14" stroke-width="1.2" d="M433.55-2907h90.99"/><path fill="#39ff14" stroke="#39ff14" stroke-width="1.2" d="m524.8-2910.5 10 3.5-10 3.5z"/></g></g></svg>