<?xml version="1.0" encoding="UTF-8" standalone="no"?>
<!DOCTYPE svg PUBLIC "-//W3C//DTD SVG 1.1//EN"
 "http://www.w3.org/Graphics/SVG/1.1/DTD/svg11.dtd">
<!-- Generated by graphviz version 2.43.0 (0)
 -->
<!-- Title: G Pages: 1 -->
<svg width="655pt" height="2501pt"
 viewBox="0.00 0.00 654.96 2501.00" xmlns="http://www.w3.org/2000/svg" xmlns:xlink="http://www.w3.org/1999/xlink">
    <style type="text/css">
    <![CDATA[
      /* Overall SVG background */
      svg {
        background-color: #121212;
      }

      /* Node styling and animation */
      .node {
        transition: transform 0.3s ease-in-out, filter 0.4s ease-in-out;
        animation: fadeIn 0.5s ease-out forwards, pulseGlow 4s infinite alternate;
        opacity: 0; /* Start transparent for fadeIn */
        filter: drop-shadow(0 0 4px rgba(0, 255, 153, 0.6));
      }

      .node:hover {
        transform: scale(1.1);
        filter: drop-shadow(0 0 10px rgba(0, 255, 153, 1));
        cursor: pointer;
      }

      /* Edge styling and animation */
      .edge {
        stroke-dasharray: 8, 4; /* Dashed line pattern */
        animation: dash 10s linear infinite, glow 3s infinite alternate;
      }

      .edge path {
         stroke: #39ff14; /* Ensure path color is set */
      }
      .edge polygon {
         fill: #39ff14; /* Ensure arrowhead color is set */
         stroke: #39ff14;
      }

      /* Text styling within nodes */
      .node text {
        fill: #00ffcc !important; /* Ensure high specificity */
        font-weight: bold;
        pointer-events: none; /* Prevent text from blocking node hover */
      }

      /* Keyframe animations */
      @keyframes fadeIn {
        to { opacity: 1; }
      }

      @keyframes pulseGlow {
        0% { filter: drop-shadow(0 0 4px rgba(0, 255, 153, 0.6)); opacity: 0.9; }
        50% { filter: drop-shadow(0 0 8px rgba(0, 255, 153, 0.8)); }
        100% { filter: drop-shadow(0 0 6px rgba(0, 255, 204, 0.9)); opacity: 1; }
      }

      @keyframes glow {
        from { stroke-opacity: 0.7; filter: drop-shadow(0 0 2px #39ff14); }
        to { stroke-opacity: 1; filter: drop-shadow(0 0 4px #39ff14); }
      }

      @keyframes dash {
        to { stroke-dashoffset: -100; } /* Adjust value based on dasharray */
      }
    ]]>
    </style>

<g id="graph0" class="graph" transform="scale(1 1) rotate(0) translate(4 2497)">
<title>G</title>
<polygon fill="#121212" stroke="transparent" points="-4,4 -4,-2497 650.96,-2497 650.96,4 -4,4"/>
<!-- node_92de9458c7 -->
<g id="node1" class="node">
<title>node_92de9458c7</title>
<ellipse fill="#1a1a1a" stroke="#ff3366" stroke-width="1.5" cx="114.5" cy="-18" rx="50.46" ry="18"/>
<text text-anchor="middle" x="114.5" y="-14.9" font-family="Arial" font-size="12.00" fill="#00ffcc">.editorconfig</text>
</g>
<!-- node_d54d9d57e8 -->
<g id="node2" class="node">
<title>node_d54d9d57e8</title>
<path fill="#1a1a1a" stroke="#33ccff" stroke-width="1.5" d="M129.5,-90C129.5,-90 99.5,-90 99.5,-90 93.5,-90 87.5,-84 87.5,-78 87.5,-78 87.5,-66 87.5,-66 87.5,-60 93.5,-54 99.5,-54 99.5,-54 129.5,-54 129.5,-54 135.5,-54 141.5,-60 141.5,-66 141.5,-66 141.5,-78 141.5,-78 141.5,-84 135.5,-90 129.5,-90"/>
<text text-anchor="middle" x="114.5" y="-68.9" font-family="Arial" font-size="12.00" fill="#00ffcc">.github</text>
</g>
<!-- node_4ea6c02f5c -->
<g id="node3" class="node">
<title>node_4ea6c02f5c</title>
<path fill="#1a1a1a" stroke="#00ff99" stroke-width="1.5" d="M381.57,-90C381.57,-90 335.57,-90 335.57,-90 329.57,-90 323.57,-84 323.57,-78 323.57,-78 323.57,-66 323.57,-66 323.57,-60 329.57,-54 335.57,-54 335.57,-54 381.57,-54 381.57,-54 387.57,-54 393.57,-60 393.57,-66 393.57,-66 393.57,-78 393.57,-78 393.57,-84 387.57,-90 381.57,-90"/>
<text text-anchor="middle" x="358.57" y="-68.9" font-family="Arial" font-size="12.00" fill="#00ffcc">workflows</text>
</g>
<!-- node_d54d9d57e8&#45;&gt;node_4ea6c02f5c -->
<g id="edge1" class="edge">
<title>node_d54d9d57e8&#45;&gt;node_4ea6c02f5c</title>
<path fill="none" stroke="#39ff14" stroke-width="1.2" d="M141.87,-72C183.05,-72 263.11,-72 313.26,-72"/>
<polygon fill="#39ff14" stroke="#39ff14" stroke-width="1.2" points="313.49,-75.5 323.49,-72 313.49,-68.5 313.49,-75.5"/>
</g>
<!-- node_fe9fef277d -->
<g id="node4" class="node">
<title>node_fe9fef277d</title>
<ellipse fill="#1a1a1a" stroke="#00ff99" stroke-width="1.5" cx="567.55" cy="-99" rx="30.56" ry="18"/>
<text text-anchor="middle" x="567.55" y="-95.9" font-family="Arial" font-size="12.00" fill="#00ffcc">CI.yml</text>
</g>
<!-- node_4ea6c02f5c&#45;&gt;node_fe9fef277d -->
<g id="edge2" class="edge">
<title>node_4ea6c02f5c&#45;&gt;node_fe9fef277d</title>
<path fill="none" stroke="#39ff14" stroke-width="1.2" d="M393.75,-76.46C430.37,-81.24 488.44,-88.81 527.01,-93.84"/>
<polygon fill="#39ff14" stroke="#39ff14" stroke-width="1.2" points="526.97,-97.37 537.34,-95.19 527.88,-90.43 526.97,-97.37"/>
</g>
<!-- node_67aaf9192c -->
<g id="node5" class="node">
<title>node_67aaf9192c</title>
<ellipse fill="#1a1a1a" stroke="#00ff99" stroke-width="1.5" cx="567.55" cy="-45" rx="35.91" ry="18"/>
<text text-anchor="middle" x="567.55" y="-41.9" font-family="Arial" font-size="12.00" fill="#00ffcc">rust.yml</text>
</g>
<!-- node_4ea6c02f5c&#45;&gt;node_67aaf9192c -->
<g id="edge3" class="edge">
<title>node_4ea6c02f5c&#45;&gt;node_67aaf9192c</title>
<path fill="none" stroke="#39ff14" stroke-width="1.2" d="M393.75,-67.54C428.91,-62.96 483.82,-55.79 522.28,-50.77"/>
<polygon fill="#39ff14" stroke="#39ff14" stroke-width="1.2" points="523.2,-54.18 532.66,-49.42 522.29,-47.24 523.2,-54.18"/>
</g>
<!-- node_d764d7a814 -->
<g id="node6" class="node">
<title>node_d764d7a814</title>
<ellipse fill="#1a1a1a" stroke="#ff3366" stroke-width="1.5" cx="114.5" cy="-126" rx="40.76" ry="18"/>
<text text-anchor="middle" x="114.5" y="-122.9" font-family="Arial" font-size="12.00" fill="#00ffcc">.gitignore</text>
</g>
<!-- node_543f9be53f -->
<g id="node7" class="node">
<title>node_543f9be53f</title>
<ellipse fill="#1a1a1a" stroke="#00ff99" stroke-width="1.5" cx="114.5" cy="-180" rx="60.16" ry="18"/>
<text text-anchor="middle" x="114.5" y="-176.9" font-family="Arial" font-size="12.00" fill="#00ffcc">.python&#45;version</text>
</g>
<!-- node_cbda80871c -->
<g id="node8" class="node">
<title>node_cbda80871c</title>
<ellipse fill="#1a1a1a" stroke="#00ff99" stroke-width="1.5" cx="114.5" cy="-234" rx="57.5" ry="18"/>
<text text-anchor="middle" x="114.5" y="-230.9" font-family="Arial" font-size="12.00" fill="#00ffcc">.sourcery.yaml</text>
</g>
<!-- node_39a87b51b1 -->
<g id="node9" class="node">
<title>node_39a87b51b1</title>
<ellipse fill="#1a1a1a" stroke="#ffff00" stroke-width="1.5" cx="114.5" cy="-288" rx="52.88" ry="18"/>
<text text-anchor="middle" x="114.5" y="-284.9" font-family="Arial" font-size="12.00" fill="#00ffcc">CLAUDE.md</text>
</g>
<!-- node_8831ff23c5 -->
<g id="node10" class="node">
<title>node_8831ff23c5</title>
<ellipse fill="#1a1a1a" stroke="#ff00cc" stroke-width="1.5" cx="114.5" cy="-342" rx="45.61" ry="18"/>
<text text-anchor="middle" x="114.5" y="-338.9" font-family="Arial" font-size="12.00" fill="#00ffcc">Cargo.lock</text>
</g>
<!-- node_0354359066 -->
<g id="node11" class="node">
<title>node_0354359066</title>
<ellipse fill="#1a1a1a" stroke="#00ff99" stroke-width="1.5" cx="114.5" cy="-396" rx="46.34" ry="18"/>
<text text-anchor="middle" x="114.5" y="-392.9" font-family="Arial" font-size="12.00" fill="#00ffcc">Cargo.toml</text>
</g>
<!-- node_b363e4549d -->
<g id="node12" class="node">
<title>node_b363e4549d</title>
<ellipse fill="#1a1a1a" stroke="#33ccff" stroke-width="1.5" cx="114.5" cy="-450" rx="80.78" ry="18"/>
<text text-anchor="middle" x="114.5" y="-446.9" font-family="Arial" font-size="12.00" fill="#00ffcc">JS_RENDERING.md</text>
</g>
<!-- node_db13280136 -->
<g id="node13" class="node">
<title>node_db13280136</title>
<ellipse fill="#1a1a1a" stroke="#00ff99" stroke-width="1.5" cx="114.5" cy="-504" rx="42.45" ry="18"/>
<text text-anchor="middle" x="114.5" y="-500.9" font-family="Arial" font-size="12.00" fill="#00ffcc">LICENSE</text>
</g>
<!-- node_316d99f608 -->
<g id="node14" class="node">
<title>node_316d99f608</title>
<ellipse fill="#1a1a1a" stroke="#00ffcc" stroke-width="1.5" cx="114.5" cy="-558" rx="114.5" ry="18"/>
<text text-anchor="middle" x="114.5" y="-554.9" font-family="Arial" font-size="12.00" fill="#00ffcc">OPTIMIZATION_SUMMARY.md</text>
</g>
<!-- node_dc12b61fff -->
<g id="node15" class="node">
<title>node_dc12b61fff</title>
<ellipse fill="#1a1a1a" stroke="#ffff00" stroke-width="1.5" cx="114.5" cy="-612" rx="54.58" ry="18"/>
<text text-anchor="middle" x="114.5" y="-608.9" font-family="Arial" font-size="12.00" fill="#00ffcc">README.md</text>
</g>
<!-- node_427dc8e581 -->
<g id="node16" class="node">
<title>node_427dc8e581</title>
<path fill="#1a1a1a" stroke="#00ffcc" stroke-width="1.5" d="M133.5,-684C133.5,-684 95.5,-684 95.5,-684 89.5,-684 83.5,-678 83.5,-672 83.5,-672 83.5,-660 83.5,-660 83.5,-654 89.5,-648 95.5,-648 95.5,-648 133.5,-648 133.5,-648 139.5,-648 145.5,-654 145.5,-660 145.5,-660 145.5,-672 145.5,-672 145.5,-678 139.5,-684 133.5,-684"/>
<text text-anchor="middle" x="114.5" y="-662.9" font-family="Arial" font-size="12.00" fill="#00ffcc">benches</text>
</g>
<!-- node_803b5060dd -->
<g id="node17" class="node">
<title>node_803b5060dd</title>
<ellipse fill="#1a1a1a" stroke="#ffff00" stroke-width="1.5" cx="358.57" cy="-693" rx="40.03" ry="18"/>
<text text-anchor="middle" x="358.57" y="-689.9" font-family="Arial" font-size="12.00" fill="#00ffcc">cmds.md</text>
</g>
<!-- node_427dc8e581&#45;&gt;node_803b5060dd -->
<g id="edge4" class="edge">
<title>node_427dc8e581&#45;&gt;node_803b5060dd</title>
<path fill="none" stroke="#39ff14" stroke-width="1.2" d="M145.67,-669.36C186.73,-673.94 260.66,-682.19 309.43,-687.63"/>
<polygon fill="#39ff14" stroke="#39ff14" stroke-width="1.2" points="309.11,-691.12 319.43,-688.75 309.88,-684.16 309.11,-691.12"/>
</g>
<!-- node_a1d5df6b51 -->
<g id="node18" class="node">
<title>node_a1d5df6b51</title>
<ellipse fill="#1a1a1a" stroke="#ffff00" stroke-width="1.5" cx="358.57" cy="-639" rx="76.9" ry="18"/>
<text text-anchor="middle" x="358.57" y="-635.9" font-family="Arial" font-size="12.00" fill="#00ffcc">markdown_bench.rs</text>
</g>
<!-- node_427dc8e581&#45;&gt;node_a1d5df6b51 -->
<g id="edge5" class="edge">
<title>node_427dc8e581&#45;&gt;node_a1d5df6b51</title>
<path fill="none" stroke="#39ff14" stroke-width="1.2" d="M145.67,-662.64C178.78,-658.94 233.27,-652.86 278.7,-647.8"/>
<polygon fill="#39ff14" stroke="#39ff14" stroke-width="1.2" points="279.29,-651.25 288.84,-646.67 278.51,-644.3 279.29,-651.25"/>
</g>
<!-- node_be365333b4 -->
<g id="node19" class="node">
<title>node_be365333b4</title>
<ellipse fill="#1a1a1a" stroke="#ffff00" stroke-width="1.5" cx="114.5" cy="-720" rx="33.72" ry="18"/>
<text text-anchor="middle" x="114.5" y="-716.9" font-family="Arial" font-size="12.00" fill="#00ffcc">bs4.pyi</text>
</g>
<!-- node_1ed410b6f0 -->
<g id="node20" class="node">
<title>node_1ed410b6f0</title>
<ellipse fill="#1a1a1a" stroke="#00ff99" stroke-width="1.5" cx="114.5" cy="-774" rx="57.5" ry="18"/>
<text text-anchor="middle" x="114.5" y="-770.9" font-family="Arial" font-size="12.00" fill="#00ffcc">chunk_utils.py</text>
</g>
<!-- node_e9e8ad5994 -->
<g id="node21" class="node">
<title>node_e9e8ad5994</title>
<ellipse fill="#1a1a1a" stroke="#33ccff" stroke-width="1.5" cx="114.5" cy="-828" rx="66.47" ry="18"/>
<text text-anchor="middle" x="114.5" y="-824.9" font-family="Arial" font-size="12.00" fill="#00ffcc">demo_formats.py</text>
</g>
<!-- node_9ff3561eae -->
<g id="node22" class="node">
<title>node_9ff3561eae</title>
<path fill="#1a1a1a" stroke="#00ffcc" stroke-width="1.5" d="M145.5,-900C145.5,-900 83.5,-900 83.5,-900 77.5,-900 71.5,-894 71.5,-888 71.5,-888 71.5,-876 71.5,-876 71.5,-870 77.5,-864 83.5,-864 83.5,-864 145.5,-864 145.5,-864 151.5,-864 157.5,-870 157.5,-876 157.5,-876 157.5,-888 157.5,-888 157.5,-894 151.5,-900 145.5,-900"/>
<text text-anchor="middle" x="114.5" y="-878.9" font-family="Arial" font-size="12.00" fill="#00ffcc">demo_output</text>
</g>
<!-- node_20902e771e -->
<g id="node23" class="node">
<title>node_20902e771e</title>
<ellipse fill="#1a1a1a" stroke="#00ff99" stroke-width="1.5" cx="358.57" cy="-936" rx="46.34" ry="18"/>
<text text-anchor="middle" x="358.57" y="-932.9" font-family="Arial" font-size="12.00" fill="#00ffcc">output.json</text>
</g>
<!-- node_9ff3561eae&#45;&gt;node_20902e771e -->
<g id="edge6" class="edge">
<title>node_9ff3561eae&#45;&gt;node_20902e771e</title>
<path fill="none" stroke="#39ff14" stroke-width="1.2" d="M157.66,-891.41C199.51,-900.74 263.64,-915.05 307.92,-924.93"/>
<polygon fill="#39ff14" stroke="#39ff14" stroke-width="1.2" points="307.37,-928.39 317.89,-927.15 308.89,-921.56 307.37,-928.39"/>
</g>
<!-- node_31cebe5f44 -->
<g id="node24" class="node">
<title>node_31cebe5f44</title>
<ellipse fill="#1a1a1a" stroke="#00ffcc" stroke-width="1.5" cx="358.57" cy="-882" rx="42.45" ry="18"/>
<text text-anchor="middle" x="358.57" y="-878.9" font-family="Arial" font-size="12.00" fill="#00ffcc">output.md</text>
</g>
<!-- node_9ff3561eae&#45;&gt;node_31cebe5f44 -->
<g id="edge7" class="edge">
<title>node_9ff3561eae&#45;&gt;node_31cebe5f44</title>
<path fill="none" stroke="#39ff14" stroke-width="1.2" d="M157.66,-882C198.8,-882 261.45,-882 305.64,-882"/>
<polygon fill="#39ff14" stroke="#39ff14" stroke-width="1.2" points="305.89,-885.5 315.89,-882 305.89,-878.5 305.89,-885.5"/>
</g>
<!-- node_3153288759 -->
<g id="node25" class="node">
<title>node_3153288759</title>
<ellipse fill="#1a1a1a" stroke="#ff00cc" stroke-width="1.5" cx="358.57" cy="-828" rx="43.91" ry="18"/>
<text text-anchor="middle" x="358.57" y="-824.9" font-family="Arial" font-size="12.00" fill="#00ffcc">output.xml</text>
</g>
<!-- node_9ff3561eae&#45;&gt;node_3153288759 -->
<g id="edge8" class="edge">
<title>node_9ff3561eae&#45;&gt;node_3153288759</title>
<path fill="none" stroke="#39ff14" stroke-width="1.2" d="M157.66,-872.59C200.14,-863.12 265.57,-848.52 309.91,-838.63"/>
<polygon fill="#39ff14" stroke="#39ff14" stroke-width="1.2" points="310.86,-842 319.86,-836.41 309.34,-835.17 310.86,-842"/>
</g>
<!-- node_e0042ed000 -->
<g id="node26" class="node">
<title>node_e0042ed000</title>
<ellipse fill="#1a1a1a" stroke="#00ffcc" stroke-width="1.5" cx="114.5" cy="-936" rx="51.92" ry="18"/>
<text text-anchor="middle" x="114.5" y="-932.9" font-family="Arial" font-size="12.00" fill="#00ffcc">flowchart.dot</text>
</g>
<!-- node_5766ef061b -->
<g id="node27" class="node">
<title>node_5766ef061b</title>
<ellipse fill="#1a1a1a" stroke="#00ffcc" stroke-width="1.5" cx="114.5" cy="-990" rx="52.88" ry="18"/>
<text text-anchor="middle" x="114.5" y="-986.9" font-family="Arial" font-size="12.00" fill="#00ffcc">flowchart.svg</text>
</g>
<!-- node_2ef4e9a570 -->
<g id="node28" class="node">
<title>node_2ef4e9a570</title>
<ellipse fill="#1a1a1a" stroke="#33ccff" stroke-width="1.5" cx="114.5" cy="-1044" rx="82.48" ry="18"/>
<text text-anchor="middle" x="114.5" y="-1040.9" font-family="Arial" font-size="12.00" fill="#00ffcc">generate_flowchart.py</text>
</g>
<!-- node_d35b875d04 -->
<g id="node29" class="node">
<title>node_d35b875d04</title>
<ellipse fill="#1a1a1a" stroke="#ffff00" stroke-width="1.5" cx="114.5" cy="-1098" rx="68.89" ry="18"/>
<text text-anchor="middle" x="114.5" y="-1094.9" font-family="Arial" font-size="12.00" fill="#00ffcc">github&#45;banner.svg</text>
</g>
<!-- node_8afd548376 -->
<g id="node30" class="node">
<title>node_8afd548376</title>
<ellipse fill="#1a1a1a" stroke="#ff00cc" stroke-width="1.5" cx="114.5" cy="-1152" rx="83.21" ry="18"/>
<text text-anchor="middle" x="114.5" y="-1148.9" font-family="Arial" font-size="12.00" fill="#00ffcc">hardcoded_version.py</text>
</g>
<!-- node_758556bfc0 -->
<g id="node31" class="node">
<title>node_758556bfc0</title>
<ellipse fill="#1a1a1a" stroke="#00ffcc" stroke-width="1.5" cx="114.5" cy="-1206" rx="36.14" ry="18"/>
<text text-anchor="middle" x="114.5" y="-1202.9" font-family="Arial" font-size="12.00" fill="#00ffcc">hello.py</text>
</g>
<!-- node_1adff0ae63 -->
<g id="node32" class="node">
<title>node_1adff0ae63</title>
<ellipse fill="#1a1a1a" stroke="#00ffcc" stroke-width="1.5" cx="114.5" cy="-1260" rx="36.14" ry="18"/>
<text text-anchor="middle" x="114.5" y="-1256.9" font-family="Arial" font-size="12.00" fill="#00ffcc">main.py</text>
</g>
<!-- node_121306a057 -->
<g id="node33" class="node">
<title>node_121306a057</title>
<ellipse fill="#1a1a1a" stroke="#ff00cc" stroke-width="1.5" cx="114.5" cy="-1314" rx="78.59" ry="18"/>
<text text-anchor="middle" x="114.5" y="-1310.9" font-family="Arial" font-size="12.00" fill="#00ffcc">markdown_lab_rs.py</text>
</g>
<!-- node_0a065d3d0d -->
<g id="node34" class="node">
<title>node_0a065d3d0d</title>
<ellipse fill="#1a1a1a" stroke="#00ff99" stroke-width="1.5" cx="114.5" cy="-1368" rx="84.17" ry="18"/>
<text text-anchor="middle" x="114.5" y="-1364.9" font-family="Arial" font-size="12.00" fill="#00ffcc">markdown_scraper.log</text>
</g>
<!-- node_30b831c3fd -->
<g id="node35" class="node">
<title>node_30b831c3fd</title>
<ellipse fill="#1a1a1a" stroke="#00ffcc" stroke-width="1.5" cx="114.5" cy="-1422" rx="36.87" ry="18"/>
<text text-anchor="middle" x="114.5" y="-1418.9" font-family="Arial" font-size="12.00" fill="#00ffcc">mypy.ini</text>
</g>
<!-- node_b82b6b5e30 -->
<g id="node36" class="node">
<title>node_b82b6b5e30</title>
<ellipse fill="#1a1a1a" stroke="#ff00cc" stroke-width="1.5" cx="114.5" cy="-1476" rx="56.04" ry="18"/>
<text text-anchor="middle" x="114.5" y="-1472.9" font-family="Arial" font-size="12.00" fill="#00ffcc">pyproject.toml</text>
</g>
<!-- node_a576610fe8 -->
<g id="node37" class="node">
<title>node_a576610fe8</title>
<ellipse fill="#1a1a1a" stroke="#00ffcc" stroke-width="1.5" cx="114.5" cy="-1530" rx="62.35" ry="18"/>
<text text-anchor="middle" x="114.5" y="-1526.9" font-family="Arial" font-size="12.00" fill="#00ffcc">requirements.txt</text>
</g>
<!-- node_950e1ba36c -->
<g id="node38" class="node">
<title>node_950e1ba36c</title>
<path fill="#1a1a1a" stroke="#33ccff" stroke-width="1.5" d="M129.5,-1602C129.5,-1602 99.5,-1602 99.5,-1602 93.5,-1602 87.5,-1596 87.5,-1590 87.5,-1590 87.5,-1578 87.5,-1578 87.5,-1572 93.5,-1566 99.5,-1566 99.5,-1566 129.5,-1566 129.5,-1566 135.5,-1566 141.5,-1572 141.5,-1578 141.5,-1578 141.5,-1590 141.5,-1590 141.5,-1596 135.5,-1602 129.5,-1602"/>
<text text-anchor="middle" x="114.5" y="-1580.9" font-family="Arial" font-size="12.00" fill="#00ffcc">scripts</text>
</g>
<!-- node_529937ac6d -->
<g id="node39" class="node">
<title>node_529937ac6d</title>
<ellipse fill="#1a1a1a" stroke="#00ffcc" stroke-width="1.5" cx="358.57" cy="-1665" rx="62.35" ry="18"/>
<text text-anchor="middle" x="358.57" y="-1661.9" font-family="Arial" font-size="12.00" fill="#00ffcc">requirements.txt</text>
</g>
<!-- node_950e1ba36c&#45;&gt;node_529937ac6d -->
<g id="edge9" class="edge">
<title>node_950e1ba36c&#45;&gt;node_529937ac6d</title>
<path fill="none" stroke="#39ff14" stroke-width="1.2" d="M141.52,-1593.96C171.21,-1605.2 221.31,-1623.76 265,-1638 277.31,-1642.01 290.62,-1646.07 303.22,-1649.77"/>
<polygon fill="#39ff14" stroke="#39ff14" stroke-width="1.2" points="302.55,-1653.22 313.13,-1652.65 304.51,-1646.5 302.55,-1653.22"/>
</g>
<!-- node_9584417d09 -->
<g id="node40" class="node">
<title>node_9584417d09</title>
<ellipse fill="#1a1a1a" stroke="#ff00cc" stroke-width="1.5" cx="358.57" cy="-1611" rx="78.59" ry="18"/>
<text text-anchor="middle" x="358.57" y="-1607.9" font-family="Arial" font-size="12.00" fill="#00ffcc">run_benchmarks.ps1</text>
</g>
<!-- node_950e1ba36c&#45;&gt;node_9584417d09 -->
<g id="edge10" class="edge">
<title>node_950e1ba36c&#45;&gt;node_9584417d09</title>
<path fill="none" stroke="#39ff14" stroke-width="1.2" d="M141.87,-1586.94C174.17,-1590.54 230.41,-1596.82 277.36,-1602.05"/>
<polygon fill="#39ff14" stroke="#39ff14" stroke-width="1.2" points="277.2,-1605.56 287.53,-1603.19 277.98,-1598.6 277.2,-1605.56"/>
</g>
<!-- node_4be3943260 -->
<g id="node41" class="node">
<title>node_4be3943260</title>
<ellipse fill="#1a1a1a" stroke="#00ff99" stroke-width="1.5" cx="358.57" cy="-1557" rx="55.31" ry="18"/>
<text text-anchor="middle" x="358.57" y="-1553.9" font-family="Arial" font-size="12.00" fill="#00ffcc">setup_viz.ps1</text>
</g>
<!-- node_950e1ba36c&#45;&gt;node_4be3943260 -->
<g id="edge11" class="edge">
<title>node_950e1ba36c&#45;&gt;node_4be3943260</title>
<path fill="none" stroke="#39ff14" stroke-width="1.2" d="M141.87,-1581.06C178.55,-1576.97 246.08,-1569.44 295.84,-1563.88"/>
<polygon fill="#39ff14" stroke="#39ff14" stroke-width="1.2" points="296.31,-1567.35 305.86,-1562.77 295.53,-1560.4 296.31,-1567.35"/>
</g>
<!-- node_299deaace3 -->
<g id="node42" class="node">
<title>node_299deaace3</title>
<ellipse fill="#1a1a1a" stroke="#00ffcc" stroke-width="1.5" cx="358.57" cy="-1503" rx="93.64" ry="18"/>
<text text-anchor="middle" x="358.57" y="-1499.9" font-family="Arial" font-size="12.00" fill="#00ffcc">visualize_benchmarks.py</text>
</g>
<!-- node_950e1ba36c&#45;&gt;node_299deaace3 -->
<g id="edge12" class="edge">
<title>node_950e1ba36c&#45;&gt;node_299deaace3</title>
<path fill="none" stroke="#39ff14" stroke-width="1.2" d="M141.75,-1580.86C165.42,-1577.32 200.76,-1570.24 229,-1557 247.11,-1548.51 247.11,-1538.94 265,-1530 272.42,-1526.29 280.45,-1523 288.56,-1520.11"/>
<polygon fill="#39ff14" stroke="#39ff14" stroke-width="1.2" points="289.73,-1523.41 298.09,-1516.9 287.49,-1516.78 289.73,-1523.41"/>
</g>
<!-- node_3e65509134 -->
<g id="node43" class="node">
<title>node_3e65509134</title>
<ellipse fill="#1a1a1a" stroke="#00ff99" stroke-width="1.5" cx="114.5" cy="-1746" rx="63.31" ry="18"/>
<text text-anchor="middle" x="114.5" y="-1742.9" font-family="Arial" font-size="12.00" fill="#00ffcc">sitemap_utils.py</text>
</g>
<!-- node_5edab93611 -->
<g id="node44" class="node">
<title>node_5edab93611</title>
<path fill="#1a1a1a" stroke="#ff3366" stroke-width="1.5" d="M129.5,-1926C129.5,-1926 99.5,-1926 99.5,-1926 93.5,-1926 87.5,-1920 87.5,-1914 87.5,-1914 87.5,-1902 87.5,-1902 87.5,-1896 93.5,-1890 99.5,-1890 99.5,-1890 129.5,-1890 129.5,-1890 135.5,-1890 141.5,-1896 141.5,-1902 141.5,-1902 141.5,-1914 141.5,-1914 141.5,-1920 135.5,-1926 129.5,-1926"/>
<text text-anchor="middle" x="114.5" y="-1904.9" font-family="Arial" font-size="12.00" fill="#00ffcc">src</text>
</g>
<!-- node_c75872343d -->
<g id="node45" class="node">
<title>node_c75872343d</title>
<ellipse fill="#1a1a1a" stroke="#00ffcc" stroke-width="1.5" cx="358.57" cy="-2097" rx="46.34" ry="18"/>
<text text-anchor="middle" x="358.57" y="-2093.9" font-family="Arial" font-size="12.00" fill="#00ffcc">__init__.py</text>
</g>
<!-- node_5edab93611&#45;&gt;node_c75872343d -->
<g id="edge13" class="edge">
<title>node_5edab93611&#45;&gt;node_c75872343d</title>
<path fill="none" stroke="#39ff14" stroke-width="1.2" d="M141.57,-1915.85C167.16,-1924.81 205.67,-1941.86 229,-1969 260.06,-2005.14 230.33,-2037.3 265,-2070 275.48,-2079.89 289.39,-2086.18 303.23,-2090.18"/>
<polygon fill="#39ff14" stroke="#39ff14" stroke-width="1.2" points="302.69,-2093.65 313.24,-2092.7 304.4,-2086.86 302.69,-2093.65"/>
</g>
<!-- node_a6f11d2022 -->
<g id="node46" class="node">
<title>node_a6f11d2022</title>
<ellipse fill="#1a1a1a" stroke="#00ffcc" stroke-width="1.5" cx="358.57" cy="-2043" rx="43.91" ry="18"/>
<text text-anchor="middle" x="358.57" y="-2039.9" font-family="Arial" font-size="12.00" fill="#00ffcc">chunker.rs</text>
</g>
<!-- node_5edab93611&#45;&gt;node_a6f11d2022 -->
<g id="edge14" class="edge">
<title>node_5edab93611&#45;&gt;node_a6f11d2022</title>
<path fill="none" stroke="#39ff14" stroke-width="1.2" d="M141.76,-1918.3C166.09,-1928.68 202.42,-1946.38 229,-1969 249.04,-1986.05 243.29,-2001.13 265,-2016 277.46,-2024.53 292.62,-2030.4 307.05,-2034.43"/>
<polygon fill="#39ff14" stroke="#39ff14" stroke-width="1.2" points="306.32,-2037.85 316.87,-2036.93 308.05,-2031.07 306.32,-2037.85"/>
</g>
<!-- node_9d76801b53 -->
<g id="node47" class="node">
<title>node_9d76801b53</title>
<ellipse fill="#1a1a1a" stroke="#ffff00" stroke-width="1.5" cx="358.57" cy="-1989" rx="56.77" ry="18"/>
<text text-anchor="middle" x="358.57" y="-1985.9" font-family="Arial" font-size="12.00" fill="#00ffcc">html_parser.rs</text>
</g>
<!-- node_5edab93611&#45;&gt;node_9d76801b53 -->
<g id="edge15" class="edge">
<title>node_5edab93611&#45;&gt;node_9d76801b53</title>
<path fill="none" stroke="#39ff14" stroke-width="1.2" d="M141.52,-1917.96C171.21,-1929.2 221.31,-1947.76 265,-1962 278.06,-1966.26 292.26,-1970.56 305.53,-1974.45"/>
<polygon fill="#39ff14" stroke="#39ff14" stroke-width="1.2" points="304.88,-1977.9 315.46,-1977.32 306.83,-1971.18 304.88,-1977.9"/>
</g>
<!-- node_00f05e825f -->
<g id="node48" class="node">
<title>node_00f05e825f</title>
<ellipse fill="#1a1a1a" stroke="#ff3366" stroke-width="1.5" cx="358.57" cy="-1935" rx="54.58" ry="18"/>
<text text-anchor="middle" x="358.57" y="-1931.9" font-family="Arial" font-size="12.00" fill="#00ffcc">js_renderer.rs</text>
</g>
<!-- node_5edab93611&#45;&gt;node_00f05e825f -->
<g id="edge16" class="edge">
<title>node_5edab93611&#45;&gt;node_00f05e825f</title>
<path fill="none" stroke="#39ff14" stroke-width="1.2" d="M141.87,-1910.94C178.66,-1915.05 246.5,-1922.61 296.31,-1928.17"/>
<polygon fill="#39ff14" stroke="#39ff14" stroke-width="1.2" points="296.01,-1931.66 306.33,-1929.29 296.78,-1924.7 296.01,-1931.66"/>
</g>
<!-- node_3b0ffd7353 -->
<g id="node49" class="node">
<title>node_3b0ffd7353</title>
<ellipse fill="#1a1a1a" stroke="#33ccff" stroke-width="1.5" cx="358.57" cy="-1881" rx="27" ry="18"/>
<text text-anchor="middle" x="358.57" y="-1877.9" font-family="Arial" font-size="12.00" fill="#00ffcc">lib.rs</text>
</g>
<!-- node_5edab93611&#45;&gt;node_3b0ffd7353 -->
<g id="edge17" class="edge">
<title>node_5edab93611&#45;&gt;node_3b0ffd7353</title>
<path fill="none" stroke="#39ff14" stroke-width="1.2" d="M141.87,-1905.06C185.36,-1900.21 272.22,-1890.52 321.41,-1885.03"/>
<polygon fill="#39ff14" stroke="#39ff14" stroke-width="1.2" points="322.05,-1888.48 331.6,-1883.9 321.27,-1881.53 322.05,-1888.48"/>
</g>
<!-- node_85aa91c3cc -->
<g id="node50" class="node">
<title>node_85aa91c3cc</title>
<ellipse fill="#1a1a1a" stroke="#00ffcc" stroke-width="1.5" cx="358.57" cy="-1827" rx="86.36" ry="18"/>
<text text-anchor="middle" x="358.57" y="-1823.9" font-family="Arial" font-size="12.00" fill="#00ffcc">markdown_converter.rs</text>
</g>
<!-- node_5edab93611&#45;&gt;node_85aa91c3cc -->
<g id="edge18" class="edge">
<title>node_5edab93611&#45;&gt;node_85aa91c3cc</title>
<path fill="none" stroke="#39ff14" stroke-width="1.2" d="M141.52,-1898.04C171.21,-1886.8 221.31,-1868.24 265,-1854 275.01,-1850.74 285.69,-1847.45 296.1,-1844.34"/>
<polygon fill="#39ff14" stroke="#39ff14" stroke-width="1.2" points="297.38,-1847.61 305.98,-1841.42 295.4,-1840.9 297.38,-1847.61"/>
</g>
<!-- node_580e03fd05 -->
<g id="node51" class="node">
<title>node_580e03fd05</title>
<path fill="#1a1a1a" stroke="#ff3366" stroke-width="1.5" d="M417.57,-1791C417.57,-1791 299.57,-1791 299.57,-1791 293.57,-1791 287.57,-1785 287.57,-1779 287.57,-1779 287.57,-1767 287.57,-1767 287.57,-1761 293.57,-1755 299.57,-1755 299.57,-1755 417.57,-1755 417.57,-1755 423.57,-1755 429.57,-1761 429.57,-1767 429.57,-1767 429.57,-1779 429.57,-1779 429.57,-1785 423.57,-1791 417.57,-1791"/>
<text text-anchor="middle" x="358.57" y="-1769.9" font-family="Arial" font-size="12.00" fill="#00ffcc">markdown_lab.egg&#45;info</text>
</g>
<!-- node_5edab93611&#45;&gt;node_580e03fd05 -->
<g id="edge19" class="edge">
<title>node_5edab93611&#45;&gt;node_580e03fd05</title>
<path fill="none" stroke="#39ff14" stroke-width="1.2" d="M135.81,-1889.8C163.28,-1866.04 214.66,-1824.61 265,-1800 269.08,-1798 273.35,-1796.12 277.7,-1794.36"/>
<polygon fill="#39ff14" stroke="#39ff14" stroke-width="1.2" points="279.25,-1797.52 287.35,-1790.69 276.76,-1790.98 279.25,-1797.52"/>
</g>
<!-- node_bad0f5a093 -->
<g id="node56" class="node">
<title>node_bad0f5a093</title>
<ellipse fill="#1a1a1a" stroke="#33ccff" stroke-width="1.5" cx="358.57" cy="-1719" rx="33.49" ry="18"/>
<text text-anchor="middle" x="358.57" y="-1715.9" font-family="Arial" font-size="12.00" fill="#00ffcc">tests.rs</text>
</g>
<!-- node_5edab93611&#45;&gt;node_bad0f5a093 -->
<g id="edge24" class="edge">
<title>node_5edab93611&#45;&gt;node_bad0f5a093</title>
<path fill="none" stroke="#39ff14" stroke-width="1.2" d="M130.08,-1889.89C160.97,-1851.95 232.79,-1765.95 265,-1746 280.44,-1736.44 299.41,-1730.13 316.16,-1726.04"/>
<polygon fill="#39ff14" stroke="#39ff14" stroke-width="1.2" points="317.26,-1729.38 326.24,-1723.76 315.72,-1722.55 317.26,-1729.38"/>
</g>
<!-- node_de84949c41 -->
<g id="node52" class="node">
<title>node_de84949c41</title>
<ellipse fill="#1a1a1a" stroke="#ffff00" stroke-width="1.5" cx="567.55" cy="-1854" rx="45.61" ry="18"/>
<text text-anchor="middle" x="567.55" y="-1850.9" font-family="Arial" font-size="12.00" fill="#00ffcc">PKG&#45;INFO</text>
</g>
<!-- node_580e03fd05&#45;&gt;node_de84949c41 -->
<g id="edge20" class="edge">
<title>node_580e03fd05&#45;&gt;node_de84949c41</title>
<path fill="none" stroke="#39ff14" stroke-width="1.2" d="M429.85,-1790.57C437.53,-1793.34 445.1,-1796.48 452.14,-1800 470.03,-1808.94 470.47,-1817.63 488.14,-1827 498.07,-1832.27 509.24,-1836.83 519.97,-1840.64"/>
<polygon fill="#39ff14" stroke="#39ff14" stroke-width="1.2" points="519.05,-1844.02 529.65,-1843.91 521.3,-1837.39 519.05,-1844.02"/>
</g>
<!-- node_1c4de548c2 -->
<g id="node53" class="node">
<title>node_1c4de548c2</title>
<ellipse fill="#1a1a1a" stroke="#33ccff" stroke-width="1.5" cx="567.55" cy="-1800" rx="56.77" ry="18"/>
<text text-anchor="middle" x="567.55" y="-1796.9" font-family="Arial" font-size="12.00" fill="#00ffcc">SOURCES.txt</text>
</g>
<!-- node_580e03fd05&#45;&gt;node_1c4de548c2 -->
<g id="edge21" class="edge">
<title>node_580e03fd05&#45;&gt;node_1c4de548c2</title>
<path fill="none" stroke="#39ff14" stroke-width="1.2" d="M429.64,-1782.14C453.96,-1785.31 481.03,-1788.84 504.64,-1791.92"/>
<polygon fill="#39ff14" stroke="#39ff14" stroke-width="1.2" points="504.5,-1795.44 514.87,-1793.26 505.41,-1788.49 504.5,-1795.44"/>
</g>
<!-- node_ed0291a51c -->
<g id="node54" class="node">
<title>node_ed0291a51c</title>
<ellipse fill="#1a1a1a" stroke="#ff00cc" stroke-width="1.5" cx="567.55" cy="-1746" rx="79.32" ry="18"/>
<text text-anchor="middle" x="567.55" y="-1742.9" font-family="Arial" font-size="12.00" fill="#00ffcc">dependency_links.txt</text>
</g>
<!-- node_580e03fd05&#45;&gt;node_ed0291a51c -->
<g id="edge22" class="edge">
<title>node_580e03fd05&#45;&gt;node_ed0291a51c</title>
<path fill="none" stroke="#39ff14" stroke-width="1.2" d="M429.64,-1763.86C448.52,-1761.4 469.05,-1758.72 488.34,-1756.2"/>
<polygon fill="#39ff14" stroke="#39ff14" stroke-width="1.2" points="488.84,-1759.67 498.3,-1754.9 487.93,-1752.73 488.84,-1759.67"/>
</g>
<!-- node_6d3a272a3b -->
<g id="node55" class="node">
<title>node_6d3a272a3b</title>
<ellipse fill="#1a1a1a" stroke="#ff00cc" stroke-width="1.5" cx="567.55" cy="-1692" rx="49.5" ry="18"/>
<text text-anchor="middle" x="567.55" y="-1688.9" font-family="Arial" font-size="12.00" fill="#00ffcc">top_level.txt</text>
</g>
<!-- node_580e03fd05&#45;&gt;node_6d3a272a3b -->
<g id="edge23" class="edge">
<title>node_580e03fd05&#45;&gt;node_6d3a272a3b</title>
<path fill="none" stroke="#39ff14" stroke-width="1.2" d="M429.85,-1755.43C437.53,-1752.66 445.1,-1749.52 452.14,-1746 470.03,-1737.06 470.47,-1728.37 488.14,-1719 497.49,-1714.04 507.93,-1709.71 518.07,-1706.04"/>
<polygon fill="#39ff14" stroke="#39ff14" stroke-width="1.2" points="519.34,-1709.31 527.66,-1702.74 517.06,-1702.69 519.34,-1709.31"/>
</g>
<!-- node_abceca1e70 -->
<g id="node57" class="node">
<title>node_abceca1e70</title>
<ellipse fill="#1a1a1a" stroke="#ff3366" stroke-width="1.5" cx="114.5" cy="-1996" rx="75.94" ry="18"/>
<text text-anchor="middle" x="114.5" y="-1992.9" font-family="Arial" font-size="12.00" fill="#00ffcc">test_benchmarks.py</text>
</g>
<!-- node_45b8fd707c -->
<g id="node58" class="node">
<title>node_45b8fd707c</title>
<ellipse fill="#1a1a1a" stroke="#ff00cc" stroke-width="1.5" cx="114.5" cy="-2117" rx="73.01" ry="18"/>
<text text-anchor="middle" x="114.5" y="-2113.9" font-family="Arial" font-size="12.00" fill="#00ffcc">test_chunk_utils.py</text>
</g>
<!-- node_ccd34ad4cf -->
<g id="node59" class="node">
<title>node_ccd34ad4cf</title>
<path fill="#1a1a1a" stroke="#ff3366" stroke-width="1.5" d="M135,-2223C135,-2223 94,-2223 94,-2223 88,-2223 82,-2217 82,-2211 82,-2211 82,-2199 82,-2199 82,-2193 88,-2187 94,-2187 94,-2187 135,-2187 135,-2187 141,-2187 147,-2193 147,-2199 147,-2199 147,-2211 147,-2211 147,-2217 141,-2223 135,-2223"/>
<text text-anchor="middle" x="114.5" y="-2201.9" font-family="Arial" font-size="12.00" fill="#00ffcc">test_data</text>
</g>
<!-- node_ac963cad40 -->
<g id="node60" class="node">
<title>node_ac963cad40</title>
<ellipse fill="#1a1a1a" stroke="#33ccff" stroke-width="1.5" cx="358.57" cy="-2259" rx="42.45" ry="18"/>
<text text-anchor="middle" x="358.57" y="-2255.9" font-family="Arial" font-size="12.00" fill="#00ffcc">large.html</text>
</g>
<!-- node_ccd34ad4cf&#45;&gt;node_ac963cad40 -->
<g id="edge25" class="edge">
<title>node_ccd34ad4cf&#45;&gt;node_ac963cad40</title>
<path fill="none" stroke="#39ff14" stroke-width="1.2" d="M147.15,-2212.06C188.9,-2221.37 262.73,-2237.84 310.9,-2248.59"/>
<polygon fill="#39ff14" stroke="#39ff14" stroke-width="1.2" points="310.24,-2252.03 320.77,-2250.79 311.77,-2245.2 310.24,-2252.03"/>
</g>
<!-- node_15f9e8347b -->
<g id="node61" class="node">
<title>node_15f9e8347b</title>
<ellipse fill="#1a1a1a" stroke="#ffff00" stroke-width="1.5" cx="358.57" cy="-2205" rx="52.15" ry="18"/>
<text text-anchor="middle" x="358.57" y="-2201.9" font-family="Arial" font-size="12.00" fill="#00ffcc">medium.html</text>
</g>
<!-- node_ccd34ad4cf&#45;&gt;node_15f9e8347b -->
<g id="edge26" class="edge">
<title>node_ccd34ad4cf&#45;&gt;node_15f9e8347b</title>
<path fill="none" stroke="#39ff14" stroke-width="1.2" d="M147.15,-2205C184.75,-2205 248.38,-2205 295.84,-2205"/>
<polygon fill="#39ff14" stroke="#39ff14" stroke-width="1.2" points="296.01,-2208.5 306.01,-2205 296.01,-2201.5 296.01,-2208.5"/>
</g>
<!-- node_4f77c9b351 -->
<g id="node62" class="node">
<title>node_4f77c9b351</title>
<ellipse fill="#1a1a1a" stroke="#00ffcc" stroke-width="1.5" cx="358.57" cy="-2151" rx="46.34" ry="18"/>
<text text-anchor="middle" x="358.57" y="-2147.9" font-family="Arial" font-size="12.00" fill="#00ffcc">sample.md</text>
</g>
<!-- node_ccd34ad4cf&#45;&gt;node_4f77c9b351 -->
<g id="edge27" class="edge">
<title>node_ccd34ad4cf&#45;&gt;node_4f77c9b351</title>
<path fill="none" stroke="#39ff14" stroke-width="1.2" d="M147.15,-2197.94C188.06,-2188.81 259.78,-2172.81 307.97,-2162.06"/>
<polygon fill="#39ff14" stroke="#39ff14" stroke-width="1.2" points="308.88,-2165.45 317.87,-2159.85 307.35,-2158.62 308.88,-2165.45"/>
</g>
<!-- node_1e04a13704 -->
<g id="node63" class="node">
<title>node_1e04a13704</title>
<ellipse fill="#1a1a1a" stroke="#00ffcc" stroke-width="1.5" cx="114.5" cy="-2259" rx="51.92" ry="18"/>
<text text-anchor="middle" x="114.5" y="-2255.9" font-family="Arial" font-size="12.00" fill="#00ffcc">test_main.py</text>
</g>
<!-- node_d40305468c -->
<g id="node64" class="node">
<title>node_d40305468c</title>
<ellipse fill="#1a1a1a" stroke="#ffff00" stroke-width="1.5" cx="114.5" cy="-2313" rx="78.59" ry="18"/>
<text text-anchor="middle" x="114.5" y="-2309.9" font-family="Arial" font-size="12.00" fill="#00ffcc">test_sitemap_utils.py</text>
</g>
<!-- node_a39f7a421b -->
<g id="node65" class="node">
<title>node_a39f7a421b</title>
<path fill="#1a1a1a" stroke="#00ff99" stroke-width="1.5" d="M129.5,-2385C129.5,-2385 99.5,-2385 99.5,-2385 93.5,-2385 87.5,-2379 87.5,-2373 87.5,-2373 87.5,-2361 87.5,-2361 87.5,-2355 93.5,-2349 99.5,-2349 99.5,-2349 129.5,-2349 129.5,-2349 135.5,-2349 141.5,-2355 141.5,-2361 141.5,-2361 141.5,-2373 141.5,-2373 141.5,-2379 135.5,-2385 129.5,-2385"/>
<text text-anchor="middle" x="114.5" y="-2363.9" font-family="Arial" font-size="12.00" fill="#00ffcc">tests</text>
</g>
<!-- node_2be17f4bf7 -->
<g id="node66" class="node">
<title>node_2be17f4bf7</title>
<ellipse fill="#1a1a1a" stroke="#ffff00" stroke-width="1.5" cx="358.57" cy="-2367" rx="89.75" ry="18"/>
<text text-anchor="middle" x="358.57" y="-2363.9" font-family="Arial" font-size="12.00" fill="#00ffcc">test_python_bindings.py</text>
</g>
<!-- node_a39f7a421b&#45;&gt;node_2be17f4bf7 -->
<g id="edge28" class="edge">
<title>node_a39f7a421b&#45;&gt;node_2be17f4bf7</title>
<path fill="none" stroke="#39ff14" stroke-width="1.2" d="M141.87,-2367C169.94,-2367 216.09,-2367 258.51,-2367"/>
<polygon fill="#39ff14" stroke="#39ff14" stroke-width="1.2" points="258.63,-2370.5 268.63,-2367 258.63,-2363.5 258.63,-2370.5"/>
</g>
<!-- node_e50161eee2 -->
<g id="node67" class="node">
<title>node_e50161eee2</title>
<ellipse fill="#1a1a1a" stroke="#00ffcc" stroke-width="1.5" cx="114.5" cy="-2421" rx="41.72" ry="18"/>
<text text-anchor="middle" x="114.5" y="-2417.9" font-family="Arial" font-size="12.00" fill="#00ffcc">throttle.py</text>
</g>
<!-- node_43a9595ede -->
<g id="node68" class="node">
<title>node_43a9595ede</title>
<ellipse fill="#1a1a1a" stroke="#00ff99" stroke-width="1.5" cx="114.5" cy="-2475" rx="32.75" ry="18"/>
<text text-anchor="middle" x="114.5" y="-2471.9" font-family="Arial" font-size="12.00" fill="#00ffcc">uv.lock</text>
</g>
</g>
</svg>
