<svg xmlns="http://www.w3.org/2000/svg" width="1280" height="640" viewBox="0 0 1280 640"><defs><linearGradient id="a" x1="0%" x2="100%" y1="0%" y2="100%"><stop offset="0%" stop-color="#0d1117"/><stop offset="50%" stop-color="#161b22"/><stop offset="100%" stop-color="#21262d"/></linearGradient><linearGradient id="c" x1="0%" x2="100%" y1="0%" y2="0%"><stop offset="0%" stop-color="#58a6ff"/><stop offset="50%" stop-color="#79c0ff"/><stop offset="100%" stop-color="#a5a5ff"/></linearGradient><linearGradient id="e" x1="0%" x2="100%" y1="0%" y2="0%"><stop offset="0%" stop-color="#ce422b"/><stop offset="100%" stop-color="#f74c00"/></linearGradient><pattern id="b" width="80" height="80" x="0" y="0" patternUnits="userSpaceOnUse"><path fill="none" stroke="#30363d" d="M80 0H0v80" opacity=".3"/></pattern><filter id="d" width="200%" height="200%" x="-50%" y="-50%"><feDropShadow dx="2" dy="2" flood-color="#000" flood-opacity=".8" stdDeviation="4"/></filter></defs><path fill="url(#a)" d="M0 0h1280v640H0z"/><path fill="url(#b)" d="M0 0h1280v640H0z" opacity=".4"/><path fill="url(#c)" d="M0 80h1280v120H0z" opacity=".1"/><text x="640" y="140" fill="url(#c)" filter="url(#d)" font-family="system-ui, -apple-system, sans-serif" font-size="64" font-weight="700" text-anchor="middle">
      markdown_lab
    </text><text x="640" y="175" fill="#8b949e" font-family="system-ui, -apple-system, sans-serif" font-size="20" font-weight="400" opacity=".9" text-anchor="middle">
      High-Performance HTML to Markdown Converter with Rust Backend
    </text><g transform="translate(80 250)"><rect width="320" height="280" fill="#21262d" stroke="#30363d" rx="12"/><g transform="translate(20 20)"><circle cx="25" cy="25" r="25" fill="url(#e)" opacity=".2"/><path fill="#ce422b" d="m25 5 20 20-20 20L5 25Z" opacity=".8"/><circle cx="25" cy="25" r="8" fill="#fff"/></g><text x="80" y="35" fill="#f0883e" font-family="system-ui, -apple-system, sans-serif" font-size="22" font-weight="600">
      Rust-Powered
    </text><text x="20" y="70" fill="#c9d1d9" font-family="system-ui, -apple-system, sans-serif" font-size="14" opacity=".8">
      Lightning-fast HTML parsing and conversion
    </text><text x="20" y="90" fill="#c9d1d9" font-family="system-ui, -apple-system, sans-serif" font-size="14" opacity=".8">
      with optimized memory usage
    </text><g transform="translate(20 120)"><rect width="200" height="8" fill="#30363d" rx="4"/><rect width="180" height="8" fill="#39d353" rx="4"><animate fill="freeze" attributeName="width" begin="1s" dur="3s" values="0;180;180"/></rect><text x="210" y="8" fill="#39d353" font-family="monospace" font-size="12">95% faster</text></g><g transform="translate(20 140)"><rect width="200" height="8" fill="#30363d" rx="4"/><rect width="160" height="8" fill="#58a6ff" rx="4"><animate fill="freeze" attributeName="width" begin="1.5s" dur="3s" values="0;160;160"/></rect><text x="210" y="8" fill="#58a6ff" font-family="monospace" font-size="12">Memory optimized</text></g><g transform="translate(20 180)"><rect width="280" height="80" fill="#0d1117" stroke="#30363d" rx="6"/><text x="10" y="20" fill="#79c0ff" font-family="monospace" font-size="12">from</text><text x="50" y="20" fill="#c9d1d9" font-family="monospace" font-size="12">markdown_lab</text><text x="140" y="20" fill="#79c0ff" font-family="monospace" font-size="12">import</text><text x="185" y="20" fill="#c9d1d9" font-family="monospace" font-size="12">Converter</text><text x="10" y="40" fill="#c9d1d9" font-family="monospace" font-size="12">converter</text><text x="80" y="40" fill="#ff7b72" font-family="monospace" font-size="12">=</text><text x="95" y="40" fill="#f0883e" font-family="monospace" font-size="12">Converter</text><text x="155" y="40" fill="#c9d1d9" font-family="monospace" font-size="12">()</text><text x="10" y="60" fill="#c9d1d9" font-family="monospace" font-size="12">result</text><text x="55" y="60" fill="#ff7b72" font-family="monospace" font-size="12">=</text><text x="70" y="60" fill="#c9d1d9" font-family="monospace" font-size="12">converter.convert_url</text><text x="210" y="60" fill="#c9d1d9" font-family="monospace" font-size="12">(url)</text></g></g><g transform="translate(440 280)"><rect width="400" height="200" fill="#161b22" stroke="#21262d" opacity=".8" rx="12"/><g fill="#f85149" transform="translate(20 30)"><rect width="80" height="40" stroke="#f85149" opacity=".2" rx="6"/><text x="40" y="25" font-family="system-ui, -apple-system, sans-serif" font-size="14" font-weight="600" text-anchor="middle">HTML</text></g><path stroke="#58a6ff" stroke-width="2" marker-end="url(#f)" d="M110 50h40"/><g fill="#ce422b" transform="translate(160 20)"><rect width="80" height="60" stroke="#ce422b" opacity=".2" rx="8"/><text x="40" y="30" font-family="system-ui, -apple-system, sans-serif" font-size="12" font-weight="600" text-anchor="middle">RUST</text><text x="40" y="45" font-family="system-ui, -apple-system, sans-serif" font-size="12" font-weight="600" text-anchor="middle">ENGINE</text></g><path stroke="#58a6ff" stroke-width="2" marker-end="url(#f)" d="M250 50h40"/><g transform="translate(300 20)"><rect width="80" height="20" fill="#39d353" stroke="#39d353" opacity=".2" rx="4"/><text x="40" y="15" fill="#39d353" font-family="system-ui, -apple-system, sans-serif" font-size="12" font-weight="600" text-anchor="middle">Markdown</text><rect width="80" height="20" y="25" fill="#79c0ff" stroke="#79c0ff" opacity=".2" rx="4"/><text x="40" y="40" fill="#79c0ff" font-family="system-ui, -apple-system, sans-serif" font-size="12" font-weight="600" text-anchor="middle">JSON</text><rect width="80" height="20" y="50" fill="#d2a8ff" stroke="#d2a8ff" opacity=".2" rx="4"/><text x="40" y="65" fill="#d2a8ff" font-family="system-ui, -apple-system, sans-serif" font-size="12" font-weight="600" text-anchor="middle">XML</text></g><g transform="translate(20 120)"><circle cx="20" cy="20" r="4" fill="#39d353" opacity=".8"><animate attributeName="opacity" dur="2s" repeatCount="indefinite" values="0.8;0.3;0.8"/></circle><text x="35" y="25" fill="#8b949e" font-family="system-ui, -apple-system, sans-serif" font-size="12">Semantic Chunking</text><circle cx="180" cy="20" r="4" fill="#58a6ff" opacity=".8"><animate attributeName="opacity" begin="0.5s" dur="2s" repeatCount="indefinite" values="0.8;0.3;0.8"/></circle><text x="195" y="25" fill="#8b949e" font-family="system-ui, -apple-system, sans-serif" font-size="12">RAG Ready</text></g><g font-family="monospace" font-size="11"><text y="15" fill="#39d353" transform="translate(20 160)">⚡ 10x faster than Python alternatives</text><text y="30" fill="#58a6ff" transform="translate(20 160)">🔧 Zero-copy optimizations</text></g></g><g transform="translate(880 250)"><rect width="320" height="280" fill="#21262d" stroke="#30363d" rx="12"/><g transform="translate(20 20)"><circle cx="25" cy="25" r="25" fill="#3776ab" opacity=".2"/><path fill="#3776ab" d="M15 20q0-5 5-5h10q5 0 5 5v10q0 5-5 5H20q-5 0-5-5Z" opacity=".8"/><circle cx="22" cy="22" r="3" fill="#ffd43b"/><circle cx="28" cy="28" r="3" fill="#ffd43b"/></g><text x="80" y="35" fill="#3776ab" font-family="system-ui, -apple-system, sans-serif" font-size="22" font-weight="600">
      Python Native
    </text><text x="20" y="70" fill="#c9d1d9" font-family="system-ui, -apple-system, sans-serif" font-size="14" opacity=".8">
      Seamless integration with Python ecosystem
    </text><text x="20" y="90" fill="#c9d1d9" font-family="system-ui, -apple-system, sans-serif" font-size="14" opacity=".8">
      pip install markdown-lab
    </text><g transform="translate(20 120)"><circle cx="8" cy="8" r="3" fill="#39d353"/><text x="20" y="12" fill="#c9d1d9" font-family="system-ui, -apple-system, sans-serif" font-size="14">Multiple output formats</text></g><g transform="translate(20 145)"><circle cx="8" cy="8" r="3" fill="#58a6ff"/><text x="20" y="12" fill="#c9d1d9" font-family="system-ui, -apple-system, sans-serif" font-size="14">Sitemap crawling</text></g><g transform="translate(20 170)"><circle cx="8" cy="8" r="3" fill="#f0883e"/><text x="20" y="12" fill="#c9d1d9" font-family="system-ui, -apple-system, sans-serif" font-size="14">Smart caching</text></g><g transform="translate(20 195)"><circle cx="8" cy="8" r="3" fill="#bc8cff"/><text x="20" y="12" fill="#c9d1d9" font-family="system-ui, -apple-system, sans-serif" font-size="14">Rate limiting</text></g><g transform="translate(20 220)"><rect width="280" height="40" fill="#0d1117" stroke="#30363d" rx="6"/><text x="10" y="15" fill="#8b949e" font-family="monospace" font-size="12">$</text><text x="25" y="15" fill="#39d353" font-family="monospace" font-size="12">pip install</text><text x="105" y="15" fill="#c9d1d9" font-family="monospace" font-size="12">markdown-lab</text><text x="10" y="32" fill="#8b949e" font-family="monospace" font-size="12">$</text><text x="25" y="32" fill="#58a6ff" font-family="monospace" font-size="12">just setup</text></g></g><path fill="#0d1117" d="M0 560h1280v80H0z" opacity=".8"/><g transform="translate(200 585)"><circle cx="15" cy="15" r="8" fill="#39d353" opacity=".3"/><text x="15" y="20" fill="#39d353" font-family="system-ui, -apple-system, sans-serif" font-size="16" font-weight="700" text-anchor="middle">⚡</text><text x="40" y="12" fill="#c9d1d9" font-family="system-ui, -apple-system, sans-serif" font-size="14" font-weight="600">High Performance</text><text x="40" y="28" fill="#8b949e" font-family="system-ui, -apple-system, sans-serif" font-size="12">Rust-powered conversion</text></g><g transform="translate(440 585)"><circle cx="15" cy="15" r="8" fill="#58a6ff" opacity=".3"/><text x="15" y="20" fill="#58a6ff" font-family="system-ui, -apple-system, sans-serif" font-size="16" font-weight="700" text-anchor="middle">🔧</text><text x="40" y="12" fill="#c9d1d9" font-family="system-ui, -apple-system, sans-serif" font-size="14" font-weight="600">Easy Integration</text><text x="40" y="28" fill="#8b949e" font-family="system-ui, -apple-system, sans-serif" font-size="12">Python-first API</text></g><g transform="translate(680 585)"><circle cx="15" cy="15" r="8" fill="#f0883e" opacity=".3"/><text x="15" y="20" fill="#f0883e" font-family="system-ui, -apple-system, sans-serif" font-size="16" font-weight="700" text-anchor="middle">🎯</text><text x="40" y="12" fill="#c9d1d9" font-family="system-ui, -apple-system, sans-serif" font-size="14" font-weight="600">RAG Optimized</text><text x="40" y="28" fill="#8b949e" font-family="system-ui, -apple-system, sans-serif" font-size="12">Semantic chunking</text></g><g transform="translate(920 585)"><circle cx="15" cy="15" r="8" fill="#bc8cff" opacity=".3"/><text x="15" y="20" fill="#bc8cff" font-family="system-ui, -apple-system, sans-serif" font-size="16" font-weight="700" text-anchor="middle">📦</text><text x="40" y="12" fill="#c9d1d9" font-family="system-ui, -apple-system, sans-serif" font-size="14" font-weight="600">Multi-Format</text><text x="40" y="28" fill="#8b949e" font-family="system-ui, -apple-system, sans-serif" font-size="12">MD, JSON, XML output</text></g><g opacity=".6"><circle cx="100" cy="400" r="3" fill="#58a6ff"><animate attributeName="cy" dur="4s" repeatCount="indefinite" values="400;380;400"/><animate attributeName="opacity" dur="3s" repeatCount="indefinite" values="0.6;0.3;0.6"/></circle><circle cx="1180" cy="300" r="4" fill="#39d353"><animate attributeName="cy" dur="5s" repeatCount="indefinite" values="300;320;300"/><animate attributeName="opacity" dur="4s" repeatCount="indefinite" values="0.6;0.3;0.6"/></circle><circle cx="50" cy="200" r="2" fill="#f0883e"><animate attributeName="cy" dur="6s" repeatCount="indefinite" values="200;180;200"/><animate attributeName="opacity" dur="2s" repeatCount="indefinite" values="0.6;0.3;0.6"/></circle></g><defs><marker id="f" markerHeight="7" markerWidth="10" orient="auto" refX="9" refY="3.5"><path fill="#58a6ff" d="m0 0 10 3.5L0 7z"/></marker></defs></svg>